<svg width="824" height="824" viewBox="0 0 824 824" fill="none" xmlns="http://www.w3.org/2000/svg">
<rect width="824" height="824" fill="white"/>
<rect width="824" height="824" fill="url(#paint0_linear_0_62)"/>
<g filter="url(#filter0_d_0_62)">
<path d="M746.254 251.714C712.186 113.499 535.896 38.5746 348.59 84.5331C161.216 130.492 43.8141 280.035 77.8821 418.25C95.9701 491.681 197.596 576.679 264.644 560.263L328.836 555.074V551.478C306.634 548.833 285.452 544.05 265.698 537.301C196.644 513.796 144.964 466.718 129.494 403.868C101.24 289.193 204.09 165.189 359.096 127.168C514.068 89.1459 662.852 151.419 691.14 266.095C717.354 372.427 622.834 485.848 486.562 532.247C486.018 532.417 485.576 533.57 485.27 535.334L416.76 701.293L406.492 562.434H358.246L379.088 752H435.63L517.944 558.194C686.38 507.25 776.412 373.987 746.254 251.68V251.714Z" fill="black"/>
</g>
<g filter="url(#filter1_d_0_62)">
<path fill-rule="evenodd" clip-rule="evenodd" d="M636.298 314.461C619.094 237.027 512.844 195.342 398.978 221.323C285.112 247.338 206.776 331.183 223.98 408.651C241.184 486.085 347.434 527.77 461.3 501.789C575.166 475.774 653.502 391.929 636.298 314.461ZM475.172 480.082C384.732 500.738 300.31 467.498 286.608 405.87C272.906 344.207 335.126 277.491 425.566 256.835C516.006 236.179 600.428 269.419 614.13 331.047C627.832 392.71 565.612 459.426 475.172 480.082Z" fill="#B42025"/>
</g>
<g filter="url(#filter2_d_0_62)">
<path fill-rule="evenodd" clip-rule="evenodd" d="M580.946 367.373C579.994 361.505 577.784 356.044 577.784 356.044C578.872 359.572 577.24 362.116 572.786 363.778C567.482 365.745 524.54 379.346 501.352 386.74C501.148 385.349 500.774 384.027 500.196 382.704C499.924 382.093 499.618 381.483 499.244 380.94C515.768 375.174 538.854 366.864 554.256 360.25C567.958 354.383 569.148 342.07 564.524 337.322C549.802 324.501 536.066 319.719 519.61 316.903C519.61 316.903 525.288 318.057 520.834 325.552C510.906 342.308 499.686 360.25 491.084 374.021C488.976 373.071 486.63 372.393 484.046 372.054C483.638 371.986 483.264 371.986 482.856 371.952C489.248 360.522 497.374 345.36 501.794 334.642C508.968 317.141 482.21 317.141 478.062 317.31C473.812 317.514 466.502 318.769 459.702 320.329C447.122 323.212 435.664 328.537 425.09 333.862C427.538 332.641 431.924 332.404 433.896 334.541C445.388 347.124 456.812 363.439 466.23 374.326C463.204 375.479 460.45 377.04 458.036 378.837C449.672 370.222 438.248 358.961 429.068 351.737C414.142 340.001 401.528 349.634 392.246 358.283C381.298 370.256 374.872 380.635 370.656 395.186C372.05 391.455 373.24 389.114 381.4 388.809C406.458 387.825 430.054 388.334 450.148 388.877C449.332 391.014 448.924 393.15 449.026 395.287C431.992 395.966 407.92 397.221 391.192 399.086C375.756 400.816 371.234 403.495 370.18 410.008C367.426 426.559 381.128 445.011 394.32 453.219C394.32 453.219 389.628 447.487 394.932 443.45C396.938 441.924 452.12 403.936 452.12 403.936C452.12 403.936 455.248 407.26 457.322 408.481C444.64 418.046 427.572 431.24 416.76 440.907C402.888 453.321 416.284 463.496 423.39 465.429C438.894 469.431 460.79 469.601 482.448 465.463C479.014 466.04 473.948 463.767 473.404 456.373C472.214 440.296 471.738 425.474 471.228 411.771C472.928 411.771 474.662 411.602 476.396 411.33C477.892 411.093 479.388 410.754 480.816 410.347C481.972 421.404 483.876 435.785 486.528 445.621C490.948 461.834 508.152 457.764 511.076 456.712C515.224 455.22 518.76 453.287 520.188 452.642C535.93 444.57 546.844 437.074 559.832 423.812C555.106 428.73 548.85 425.271 541.166 422.693C521.072 415.909 510.26 409.94 494.892 402.681C496.524 401.155 497.884 399.459 498.972 397.662C499.21 397.255 499.414 396.847 499.618 396.44C513.762 400.85 533.414 406.65 547.796 409.702C563.368 413.026 572.548 407.294 576.968 397.594C580.708 387.622 582.442 376.531 580.98 367.339L580.946 367.373ZM494.382 394.439C491.016 400.104 483.434 404.343 475.478 405.598C472.656 406.039 469.766 406.107 467.012 405.734C456.438 404.275 451.576 396.848 456.166 389.148C459.532 383.484 467.114 379.244 475.07 377.989C477.892 377.548 480.782 377.48 483.536 377.854C494.11 379.312 498.972 386.74 494.382 394.439Z" fill="#EC2224"/>
</g>
<defs>
<filter id="filter0_d_0_62" x="40.0137" y="55.0031" width="744.001" height="744.997" filterUnits="userSpaceOnUse" color-interpolation-filters="sRGB">
<feFlood flood-opacity="0" result="BackgroundImageFix"/>
<feColorMatrix in="SourceAlpha" type="matrix" values="0 0 0 0 0 0 0 0 0 0 0 0 0 0 0 0 0 0 127 0" result="hardAlpha"/>
<feOffset dy="16"/>
<feGaussianBlur stdDeviation="16"/>
<feComposite in2="hardAlpha" operator="out"/>
<feColorMatrix type="matrix" values="0 0 0 0 0 0 0 0 0 0 0 0 0 0 0 0 0 0 0.2 0"/>
<feBlend mode="normal" in2="BackgroundImageFix" result="effect1_dropShadow_0_62"/>
<feBlend mode="normal" in="SourceGraphic" in2="effect1_dropShadow_0_62" result="shape"/>
</filter>
<filter id="filter1_d_0_62" x="205.611" y="205.599" width="449.056" height="327.915" filterUnits="userSpaceOnUse" color-interpolation-filters="sRGB">
<feFlood flood-opacity="0" result="BackgroundImageFix"/>
<feColorMatrix in="SourceAlpha" type="matrix" values="0 0 0 0 0 0 0 0 0 0 0 0 0 0 0 0 0 0 127 0" result="hardAlpha"/>
<feOffset dy="8"/>
<feGaussianBlur stdDeviation="8"/>
<feComposite in2="hardAlpha" operator="out"/>
<feColorMatrix type="matrix" values="0 0 0 0 0 0 0 0 0 0 0 0 0 0 0 0 0 0 0.25 0"/>
<feBlend mode="normal" in2="BackgroundImageFix" result="effect1_dropShadow_0_62"/>
<feBlend mode="normal" in="SourceGraphic" in2="effect1_dropShadow_0_62" result="shape"/>
</filter>
<filter id="filter2_d_0_62" x="361.824" y="312.903" width="227.673" height="167.596" filterUnits="userSpaceOnUse" color-interpolation-filters="sRGB">
<feFlood flood-opacity="0" result="BackgroundImageFix"/>
<feColorMatrix in="SourceAlpha" type="matrix" values="0 0 0 0 0 0 0 0 0 0 0 0 0 0 0 0 0 0 127 0" result="hardAlpha"/>
<feOffset dy="4"/>
<feGaussianBlur stdDeviation="4"/>
<feComposite in2="hardAlpha" operator="out"/>
<feColorMatrix type="matrix" values="0 0 0 0 0 0 0 0 0 0 0 0 0 0 0 0 0 0 0.25 0"/>
<feBlend mode="normal" in2="BackgroundImageFix" result="effect1_dropShadow_0_62"/>
<feBlend mode="normal" in="SourceGraphic" in2="effect1_dropShadow_0_62" result="shape"/>
</filter>
<linearGradient id="paint0_linear_0_62" x1="86.5" y1="107" x2="596" y2="746.5" gradientUnits="userSpaceOnUse">
<stop stop-opacity="0.01"/>
<stop offset="1" stop-color="white" stop-opacity="0.15"/>
</linearGradient>
</defs>
</svg>
