<svg width="1024" height="1024" viewBox="0 0 1024 1024" fill="none" xmlns="http://www.w3.org/2000/svg">
<g filter="url(#filter0_d_0_58)">
<path fill-rule="evenodd" clip-rule="evenodd" d="M924 356.627C924 346.845 924.004 337.062 923.944 327.279C923.895 319.038 923.8 310.799 923.576 302.562C923.092 284.609 922.033 266.502 918.84 248.749C915.602 230.741 910.314 213.98 901.981 197.617C893.789 181.534 883.088 166.817 870.32 154.058C857.555 141.299 842.834 130.605 826.746 122.418C810.366 114.083 793.587 108.797 775.558 105.56C757.803 102.372 739.691 101.315 721.738 100.83C713.495 100.607 705.253 100.513 697.008 100.462C687.22 100.402 677.432 100.407 667.644 100.407L553.997 100H468.997L357.361 100.407C347.554 100.407 337.747 100.402 327.94 100.462C319.678 100.513 311.42 100.607 303.161 100.83C285.167 101.315 267.014 102.373 249.217 105.565C231.164 108.801 214.36 114.085 197.958 122.414C181.835 130.602 167.083 141.297 154.291 154.058C141.501 166.816 130.78 181.53 122.573 197.61C114.217 213.981 108.919 230.752 105.673 248.77C102.477 266.516 101.418 284.617 100.931 302.562C100.709 310.8 100.613 319.039 100.563 327.279C100.503 337.063 100 349.216 100 358.999L100.003 469.089L100 554.998L100.508 667.427C100.508 677.223 100.504 687.019 100.563 696.815C100.613 705.067 100.709 713.317 100.932 721.566C101.418 739.542 102.479 757.675 105.678 775.452C108.923 793.484 114.22 810.269 122.569 826.653C130.777 842.759 141.5 857.495 154.291 870.272C167.082 883.049 181.83 893.757 197.95 901.956C214.362 910.302 231.174 915.595 249.238 918.836C267.027 922.029 285.174 923.088 303.161 923.573C311.42 923.796 319.679 923.891 327.941 923.941C337.748 924.001 347.554 923.997 357.361 923.997L470.006 924H555.217L667.644 923.996C677.432 923.996 687.22 924.001 697.008 923.941C705.253 923.891 713.495 923.796 721.738 923.573C739.698 923.087 757.816 922.027 775.579 918.832C793.597 915.591 810.368 910.3 826.739 901.959C842.831 893.761 857.554 883.051 870.32 870.272C883.086 857.497 893.786 842.763 901.978 826.66C910.316 810.268 915.604 793.475 918.844 775.431C922.034 757.661 923.092 739.535 923.577 721.566C923.8 713.316 923.895 705.066 923.944 696.815C924.005 687.019 924 677.223 924 667.427C924 667.427 923.994 556.983 923.994 554.998V468.999C923.994 467.533 924 356.627 924 356.627Z" fill="white"/>
</g>
<mask id="mask0_0_58" style="mask-type:luminance" maskUnits="userSpaceOnUse" x="100" y="100" width="824" height="824">
<path fill-rule="evenodd" clip-rule="evenodd" d="M924 356.627C924 346.845 924.004 337.062 923.944 327.279C923.895 319.038 923.8 310.799 923.576 302.562C923.092 284.609 922.033 266.502 918.84 248.749C915.602 230.741 910.314 213.98 901.981 197.617C893.789 181.534 883.088 166.817 870.32 154.058C857.555 141.299 842.834 130.605 826.746 122.418C810.366 114.083 793.587 108.797 775.558 105.56C757.803 102.372 739.691 101.315 721.738 100.83C713.495 100.607 705.253 100.513 697.008 100.462C687.22 100.402 677.432 100.407 667.644 100.407L553.997 100H468.997L357.361 100.407C347.554 100.407 337.747 100.402 327.94 100.462C319.678 100.513 311.42 100.607 303.161 100.83C285.167 101.315 267.014 102.373 249.217 105.565C231.164 108.801 214.36 114.085 197.958 122.414C181.835 130.602 167.083 141.297 154.291 154.058C141.501 166.816 130.78 181.53 122.573 197.61C114.217 213.981 108.919 230.752 105.673 248.77C102.477 266.516 101.418 284.617 100.931 302.562C100.709 310.8 100.613 319.039 100.563 327.279C100.503 337.063 100 349.216 100 358.999L100.003 469.089L100 554.998L100.508 667.427C100.508 677.223 100.504 687.019 100.563 696.815C100.613 705.067 100.709 713.317 100.932 721.566C101.418 739.542 102.479 757.675 105.678 775.452C108.923 793.484 114.22 810.269 122.569 826.653C130.777 842.759 141.5 857.495 154.291 870.272C167.082 883.049 181.83 893.757 197.95 901.956C214.362 910.302 231.174 915.595 249.238 918.836C267.027 922.029 285.174 923.088 303.161 923.573C311.42 923.796 319.679 923.891 327.941 923.941C337.748 924.001 347.554 923.997 357.361 923.997L470.006 924H555.217L667.644 923.996C677.432 923.996 687.22 924.001 697.008 923.941C705.253 923.891 713.495 923.796 721.738 923.573C739.698 923.087 757.816 922.027 775.579 918.832C793.597 915.591 810.368 910.3 826.739 901.959C842.831 893.761 857.554 883.051 870.32 870.272C883.086 857.497 893.786 842.763 901.978 826.66C910.316 810.268 915.604 793.475 918.844 775.431C922.034 757.661 923.092 739.535 923.577 721.566C923.8 713.316 923.895 705.066 923.944 696.815C924.005 687.019 924 677.223 924 667.427C924 667.427 923.994 556.983 923.994 554.998V468.999C923.994 467.533 924 356.627 924 356.627Z" fill="white"/>
</mask>
<g mask="url(#mask0_0_58)">
<rect width="824" height="824" transform="translate(100 100)" fill="white"/>
<rect width="824" height="824" transform="translate(100 100)" fill="url(#paint0_linear_0_58)"/>
<g filter="url(#filter1_d_0_58)">
<path d="M846.254 351.714C812.186 213.499 635.896 138.575 448.59 184.533C261.216 230.492 143.814 380.035 177.882 518.25C195.97 591.681 297.596 676.679 364.644 660.263L428.836 655.074V651.478C406.634 648.833 385.452 644.05 365.698 637.301C296.644 613.796 244.964 566.718 229.494 503.868C201.24 389.193 304.09 265.189 459.096 227.168C614.068 189.146 762.852 251.419 791.14 366.095C817.354 472.427 722.834 585.848 586.562 632.247C586.018 632.417 585.576 633.57 585.27 635.334L516.76 801.293L506.492 662.434H458.246L479.088 852H535.63L617.944 658.194C786.38 607.25 876.412 473.987 846.254 351.68V351.714Z" fill="black"/>
</g>
<g filter="url(#filter2_d_0_58)">
<path fill-rule="evenodd" clip-rule="evenodd" d="M736.298 414.461C719.094 337.027 612.844 295.342 498.978 321.323C385.112 347.338 306.776 431.183 323.98 508.651C341.184 586.085 447.434 627.77 561.3 601.789C675.166 575.774 753.502 491.929 736.298 414.461ZM575.172 580.082C484.732 600.738 400.31 567.498 386.608 505.87C372.906 444.207 435.126 377.491 525.566 356.835C616.006 336.179 700.428 369.419 714.13 431.047C727.832 492.71 665.612 559.426 575.172 580.082Z" fill="#B42025"/>
</g>
<g filter="url(#filter3_d_0_58)">
<path fill-rule="evenodd" clip-rule="evenodd" d="M680.946 467.373C679.994 461.505 677.784 456.044 677.784 456.044C678.872 459.572 677.24 462.116 672.786 463.778C667.482 465.745 624.54 479.346 601.352 486.74C601.148 485.349 600.774 484.027 600.196 482.704C599.924 482.093 599.618 481.483 599.244 480.94C615.768 475.174 638.854 466.864 654.256 460.25C667.958 454.383 669.148 442.07 664.524 437.322C649.802 424.501 636.066 419.719 619.61 416.903C619.61 416.903 625.288 418.057 620.834 425.552C610.906 442.308 599.686 460.25 591.084 474.021C588.976 473.071 586.63 472.393 584.046 472.054C583.638 471.986 583.264 471.986 582.856 471.952C589.248 460.522 597.374 445.36 601.794 434.642C608.968 417.141 582.21 417.141 578.062 417.31C573.812 417.514 566.502 418.769 559.702 420.329C547.122 423.212 535.664 428.537 525.09 433.862C527.538 432.641 531.924 432.404 533.896 434.541C545.388 447.124 556.812 463.439 566.23 474.326C563.204 475.479 560.45 477.04 558.036 478.837C549.672 470.222 538.248 458.961 529.068 451.737C514.142 440.001 501.528 449.634 492.246 458.283C481.298 470.256 474.872 480.635 470.656 495.186C472.05 491.455 473.24 489.114 481.4 488.809C506.458 487.825 530.054 488.334 550.148 488.877C549.332 491.014 548.924 493.15 549.026 495.287C531.992 495.966 507.92 497.221 491.192 499.086C475.756 500.816 471.234 503.495 470.18 510.008C467.426 526.559 481.128 545.011 494.32 553.219C494.32 553.219 489.628 547.487 494.932 543.45C496.938 541.924 552.12 503.936 552.12 503.936C552.12 503.936 555.248 507.26 557.322 508.481C544.64 518.046 527.572 531.24 516.76 540.907C502.888 553.321 516.284 563.496 523.39 565.429C538.894 569.431 560.79 569.601 582.448 565.463C579.014 566.04 573.948 563.767 573.404 556.373C572.214 540.296 571.738 525.474 571.228 511.771C572.928 511.771 574.662 511.602 576.396 511.33C577.892 511.093 579.388 510.754 580.816 510.347C581.972 521.404 583.876 535.785 586.528 545.621C590.948 561.834 608.152 557.764 611.076 556.712C615.224 555.22 618.76 553.287 620.188 552.642C635.93 544.57 646.844 537.074 659.832 523.812C655.106 528.73 648.85 525.271 641.166 522.693C621.072 515.909 610.26 509.94 594.892 502.681C596.524 501.155 597.884 499.459 598.972 497.662C599.21 497.255 599.414 496.847 599.618 496.44C613.762 500.85 633.414 506.65 647.796 509.702C663.368 513.026 672.548 507.294 676.968 497.594C680.708 487.622 682.442 476.531 680.98 467.339L680.946 467.373ZM594.382 494.439C591.016 500.104 583.434 504.343 575.478 505.598C572.656 506.039 569.766 506.107 567.012 505.734C556.438 504.275 551.576 496.848 556.166 489.148C559.532 483.484 567.114 479.244 575.07 477.989C577.892 477.548 580.782 477.48 583.536 477.854C594.11 479.312 598.972 486.74 594.382 494.439Z" fill="#EC2224"/>
</g>
</g>
<defs>
<filter id="filter0_d_0_58" x="90" y="100" width="844" height="844" filterUnits="userSpaceOnUse" color-interpolation-filters="sRGB">
<feFlood flood-opacity="0" result="BackgroundImageFix"/>
<feColorMatrix in="SourceAlpha" type="matrix" values="0 0 0 0 0 0 0 0 0 0 0 0 0 0 0 0 0 0 127 0" result="hardAlpha"/>
<feOffset dy="10"/>
<feGaussianBlur stdDeviation="5"/>
<feColorMatrix type="matrix" values="0 0 0 0 0 0 0 0 0 0 0 0 0 0 0 0 0 0 0.3 0"/>
<feBlend mode="normal" in2="BackgroundImageFix" result="effect1_dropShadow_0_58"/>
<feBlend mode="normal" in="SourceGraphic" in2="effect1_dropShadow_0_58" result="shape"/>
</filter>
<filter id="filter1_d_0_58" x="140.014" y="155.003" width="744.001" height="744.997" filterUnits="userSpaceOnUse" color-interpolation-filters="sRGB">
<feFlood flood-opacity="0" result="BackgroundImageFix"/>
<feColorMatrix in="SourceAlpha" type="matrix" values="0 0 0 0 0 0 0 0 0 0 0 0 0 0 0 0 0 0 127 0" result="hardAlpha"/>
<feOffset dy="16"/>
<feGaussianBlur stdDeviation="16"/>
<feComposite in2="hardAlpha" operator="out"/>
<feColorMatrix type="matrix" values="0 0 0 0 0 0 0 0 0 0 0 0 0 0 0 0 0 0 0.2 0"/>
<feBlend mode="normal" in2="BackgroundImageFix" result="effect1_dropShadow_0_58"/>
<feBlend mode="normal" in="SourceGraphic" in2="effect1_dropShadow_0_58" result="shape"/>
</filter>
<filter id="filter2_d_0_58" x="305.611" y="305.599" width="449.056" height="327.915" filterUnits="userSpaceOnUse" color-interpolation-filters="sRGB">
<feFlood flood-opacity="0" result="BackgroundImageFix"/>
<feColorMatrix in="SourceAlpha" type="matrix" values="0 0 0 0 0 0 0 0 0 0 0 0 0 0 0 0 0 0 127 0" result="hardAlpha"/>
<feOffset dy="8"/>
<feGaussianBlur stdDeviation="8"/>
<feComposite in2="hardAlpha" operator="out"/>
<feColorMatrix type="matrix" values="0 0 0 0 0 0 0 0 0 0 0 0 0 0 0 0 0 0 0.25 0"/>
<feBlend mode="normal" in2="BackgroundImageFix" result="effect1_dropShadow_0_58"/>
<feBlend mode="normal" in="SourceGraphic" in2="effect1_dropShadow_0_58" result="shape"/>
</filter>
<filter id="filter3_d_0_58" x="461.824" y="412.903" width="227.673" height="167.596" filterUnits="userSpaceOnUse" color-interpolation-filters="sRGB">
<feFlood flood-opacity="0" result="BackgroundImageFix"/>
<feColorMatrix in="SourceAlpha" type="matrix" values="0 0 0 0 0 0 0 0 0 0 0 0 0 0 0 0 0 0 127 0" result="hardAlpha"/>
<feOffset dy="4"/>
<feGaussianBlur stdDeviation="4"/>
<feComposite in2="hardAlpha" operator="out"/>
<feColorMatrix type="matrix" values="0 0 0 0 0 0 0 0 0 0 0 0 0 0 0 0 0 0 0.25 0"/>
<feBlend mode="normal" in2="BackgroundImageFix" result="effect1_dropShadow_0_58"/>
<feBlend mode="normal" in="SourceGraphic" in2="effect1_dropShadow_0_58" result="shape"/>
</filter>
<linearGradient id="paint0_linear_0_58" x1="86.5" y1="107" x2="596" y2="746.5" gradientUnits="userSpaceOnUse">
<stop stop-opacity="0.01"/>
<stop offset="1" stop-color="white" stop-opacity="0.15"/>
</linearGradient>
</defs>
</svg>
