<svg width="1074" height="1074" viewBox="0 0 1074 1074" fill="none" xmlns="http://www.w3.org/2000/svg">
<g filter="url(#filter0_d_438_331)">
<rect x="25" y="15" width="1024" height="1024" rx="245" fill="white"/>
<rect x="25" y="15" width="1024" height="1024" rx="245" fill="url(#paint0_linear_438_331)"/>
<path fill-rule="evenodd" clip-rule="evenodd" d="M917.272 524.633C917.272 316.059 747.941 146.728 539.367 146.728C330.792 146.728 161.462 316.059 161.462 524.633C161.462 628.915 203.789 723.386 272.187 791.789L161.461 902.538H537.901L537.899 902.536C538.388 902.538 538.877 902.539 539.367 902.539C747.941 902.539 917.272 733.208 917.272 524.633Z" fill="#FF0000"/>
<path d="M796.445 595.479C760.686 548.038 707.543 512.596 650.162 491.172C701.721 475.569 763.933 491.37 805.91 518.417C804.642 462.066 785.832 410.071 754.825 367.579C692.059 365.164 627.431 386.39 572.585 420.565C587.91 366.471 639.707 322.435 688.376 303.506C645.845 274.796 594.603 258.045 539.439 258.045C537.935 258.045 536.43 258.045 534.925 258.085C498.928 304.734 478.772 364.728 472.951 425.198C445.151 380.41 443.726 317.921 458.021 270.717C405.828 287.429 360.644 319.822 327.974 362.313C342.151 418.228 375.613 470.303 418.025 511.922C366.901 505.547 318.549 468.837 290.512 429.118C279.107 458.779 272.851 490.974 272.851 524.634C272.851 545.701 275.306 566.214 279.939 585.856C331.855 609.26 392.443 615.754 450.695 609.101C413.907 644.425 355.774 658.958 307.54 656.107C333.677 702.122 373.118 739.584 420.678 763.305C471.842 737.723 515.323 694.519 546.964 644.821C551.359 696.262 525.381 751.346 492.236 787.025C507.561 789.758 523.362 791.223 539.519 791.223C577.812 791.223 614.205 783.144 647.113 768.611C660.418 711.864 654.32 649.573 635.232 592.628C678.991 622.288 705.681 679.075 711.78 728.1C752.093 693.925 782.149 647.949 796.564 595.519L796.445 595.479Z" fill="#F7F7F5"/>
<path fill-rule="evenodd" clip-rule="evenodd" d="M539.366 460.363C574.847 460.363 603.637 489.152 603.637 524.634C603.637 560.116 574.847 588.905 539.366 588.905C503.884 588.905 475.094 560.116 475.094 524.634C475.094 489.152 503.884 460.363 539.366 460.363Z" fill="#FF0000"/>
</g>
<defs>
<filter id="filter0_d_438_331" x="0.14563" y="0.0873775" width="1073.71" height="1073.71" filterUnits="userSpaceOnUse" color-interpolation-filters="sRGB">
<feFlood flood-opacity="0" result="BackgroundImageFix"/>
<feColorMatrix in="SourceAlpha" type="matrix" values="0 0 0 0 0 0 0 0 0 0 0 0 0 0 0 0 0 0 127 0" result="hardAlpha"/>
<feOffset dy="9.94175"/>
<feGaussianBlur stdDeviation="12.4272"/>
<feComposite in2="hardAlpha" operator="out"/>
<feColorMatrix type="matrix" values="0 0 0 0 0 0 0 0 0 0 0 0 0 0 0 0 0 0 0.16 0"/>
<feBlend mode="normal" in2="BackgroundImageFix" result="effect1_dropShadow_438_331"/>
<feBlend mode="normal" in="SourceGraphic" in2="effect1_dropShadow_438_331" result="shape"/>
</filter>
<linearGradient id="paint0_linear_438_331" x1="1049" y1="1039" x2="25" y2="15" gradientUnits="userSpaceOnUse">
<stop stop-color="white" stop-opacity="0.15"/>
<stop offset="1" stop-opacity="0.01"/>
</linearGradient>
</defs>
</svg>
