<svg width="512" height="512" viewBox="0 0 512 512" fill="none" xmlns="http://www.w3.org/2000/svg">
<g filter="url(#filter0_d_0_22)">
<path fill-rule="evenodd" clip-rule="evenodd" d="M462 178.314C462 173.423 462.002 168.531 461.972 163.64C461.947 159.519 461.9 155.4 461.788 151.281C461.546 142.305 461.016 133.251 459.42 124.375C457.801 115.37 455.157 106.99 450.991 98.8083C446.895 90.7669 441.544 83.4084 435.16 77.0289C428.778 70.6494 421.417 65.3024 413.373 61.209C405.183 57.0415 396.793 54.3985 387.779 52.78C378.902 51.186 369.846 50.6575 360.869 50.415C356.748 50.3035 352.626 50.2565 348.504 50.231C343.61 50.201 338.716 50.2035 333.822 50.2035L276.998 50H234.499L178.681 50.2035C173.777 50.2035 168.874 50.201 163.97 50.231C159.839 50.2565 155.71 50.3035 151.581 50.415C142.583 50.6575 133.507 51.1865 124.608 52.7825C115.582 54.4005 107.18 57.0425 98.9791 61.207C90.9177 65.3009 83.5413 70.6484 77.1453 77.0289C70.7503 83.4079 65.3899 90.7649 61.2864 98.8048C57.1084 106.99 54.4595 115.376 52.8365 124.385C51.2385 133.258 50.709 142.309 50.4655 151.281C50.3545 155.4 50.3065 159.52 50.2815 163.64C50.2515 168.532 50 174.608 50 179.5L50.0015 234.544L50 277.499L50.254 333.713C50.254 338.611 50.252 343.509 50.2815 348.407C50.3065 352.533 50.3545 356.658 50.466 360.783C50.709 369.771 51.2395 378.837 52.839 387.726C54.4615 396.742 57.1099 405.135 61.2844 413.327C65.3884 421.38 70.7498 428.748 77.1453 435.136C83.5408 441.525 90.9152 446.879 98.9751 450.978C107.181 455.151 115.587 457.798 124.619 459.418C133.513 461.014 142.587 461.544 151.581 461.786C155.71 461.898 159.84 461.945 163.971 461.97C168.874 462 173.777 461.999 178.681 461.999L235.003 462H277.608L333.822 461.998C338.716 461.998 343.61 462 348.504 461.97C352.626 461.945 356.748 461.898 360.869 461.786C369.849 461.543 378.908 461.014 387.789 459.416C396.798 457.796 405.184 455.15 413.369 450.98C421.415 446.881 428.777 441.526 435.16 435.136C441.543 428.749 446.893 421.382 450.989 413.33C455.158 405.134 457.802 396.738 459.422 387.715C461.017 378.83 461.546 369.767 461.788 360.783C461.9 356.658 461.947 352.533 461.972 348.407C462.002 343.509 462 338.611 462 333.713C462 333.713 461.997 278.492 461.997 277.499V234.499C461.997 233.766 462 178.314 462 178.314Z" fill="white"/>
</g>
<mask id="mask0_0_22" style="mask-type:luminance" maskUnits="userSpaceOnUse" x="50" y="50" width="412" height="412">
<path fill-rule="evenodd" clip-rule="evenodd" d="M462 178.314C462 173.423 462.002 168.531 461.972 163.64C461.947 159.519 461.9 155.4 461.788 151.281C461.546 142.305 461.016 133.251 459.42 124.375C457.801 115.37 455.157 106.99 450.991 98.8083C446.895 90.7669 441.544 83.4084 435.16 77.0289C428.778 70.6494 421.417 65.3024 413.373 61.209C405.183 57.0415 396.793 54.3985 387.779 52.78C378.902 51.186 369.846 50.6575 360.869 50.415C356.748 50.3035 352.626 50.2565 348.504 50.231C343.61 50.201 338.716 50.2035 333.822 50.2035L276.998 50H234.499L178.681 50.2035C173.777 50.2035 168.874 50.201 163.97 50.231C159.839 50.2565 155.71 50.3035 151.581 50.415C142.583 50.6575 133.507 51.1865 124.608 52.7825C115.582 54.4005 107.18 57.0425 98.9791 61.207C90.9177 65.3009 83.5413 70.6484 77.1453 77.0289C70.7503 83.4079 65.3899 90.7649 61.2864 98.8048C57.1084 106.99 54.4595 115.376 52.8365 124.385C51.2385 133.258 50.709 142.309 50.4655 151.281C50.3545 155.4 50.3065 159.52 50.2815 163.64C50.2515 168.532 50 174.608 50 179.5L50.0015 234.544L50 277.499L50.254 333.713C50.254 338.611 50.252 343.509 50.2815 348.407C50.3065 352.533 50.3545 356.658 50.466 360.783C50.709 369.771 51.2395 378.837 52.839 387.726C54.4615 396.742 57.1099 405.135 61.2844 413.327C65.3884 421.38 70.7498 428.748 77.1453 435.136C83.5408 441.525 90.9152 446.879 98.9751 450.978C107.181 455.151 115.587 457.798 124.619 459.418C133.513 461.014 142.587 461.544 151.581 461.786C155.71 461.898 159.84 461.945 163.971 461.97C168.874 462 173.777 461.999 178.681 461.999L235.003 462H277.608L333.822 461.998C338.716 461.998 343.61 462 348.504 461.97C352.626 461.945 356.748 461.898 360.869 461.786C369.849 461.543 378.908 461.014 387.789 459.416C396.798 457.796 405.184 455.15 413.369 450.98C421.415 446.881 428.777 441.526 435.16 435.136C441.543 428.749 446.893 421.382 450.989 413.33C455.158 405.134 457.802 396.738 459.422 387.715C461.017 378.83 461.546 369.767 461.788 360.783C461.9 356.658 461.947 352.533 461.972 348.407C462.002 343.509 462 338.611 462 333.713C462 333.713 461.997 278.492 461.997 277.499V234.499C461.997 233.766 462 178.314 462 178.314Z" fill="white"/>
</mask>
<g mask="url(#mask0_0_22)">
<rect width="412" height="412" transform="translate(50 50)" fill="white"/>
<rect width="412" height="412" transform="translate(50 50)" fill="url(#paint0_linear_0_22)"/>
<g filter="url(#filter1_d_0_22)">
<path d="M423.127 175.857C406.093 106.749 317.948 69.2873 224.295 92.2666C130.608 115.246 71.907 190.017 88.941 259.125C97.985 295.841 148.798 338.34 182.322 330.132L214.418 327.537V325.739C203.317 324.416 192.726 322.025 182.849 318.65C148.322 306.898 122.482 283.359 114.747 251.934C100.62 194.596 152.045 132.595 229.548 113.584C307.034 94.573 381.426 125.709 395.57 183.047C408.677 236.213 361.417 292.924 293.281 316.124C293.009 316.208 292.788 316.785 292.635 317.667L258.38 400.647L253.246 331.217H229.123L239.544 426H267.815L308.972 329.097C393.19 303.625 438.206 236.994 423.127 175.84V175.857Z" fill="black"/>
</g>
<g filter="url(#filter2_d_0_22)">
<path fill-rule="evenodd" clip-rule="evenodd" d="M368.149 207.231C359.547 168.514 306.422 147.671 249.489 160.662C192.556 173.669 153.388 215.591 161.99 254.326C170.592 293.043 223.717 313.885 280.65 300.895C337.583 287.887 376.751 245.965 368.149 207.231ZM287.586 290.041C242.366 300.369 200.155 283.749 193.304 252.935C186.453 222.104 217.563 188.746 262.783 178.418C308.003 168.09 350.214 184.709 357.065 215.524C363.916 246.355 332.806 279.713 287.586 290.041Z" fill="#B42025"/>
</g>
<g filter="url(#filter3_d_0_22)">
<path fill-rule="evenodd" clip-rule="evenodd" d="M340.473 233.687C339.997 230.753 338.892 228.022 338.892 228.022C339.436 229.786 338.62 231.058 336.393 231.889C333.741 232.873 312.27 239.673 300.676 243.37C300.574 242.675 300.387 242.013 300.098 241.352C299.962 241.047 299.809 240.741 299.622 240.47C307.884 237.587 319.427 233.432 327.128 230.125C333.979 227.191 334.574 221.035 332.262 218.661C324.901 212.251 318.033 209.859 309.805 208.452C309.805 208.452 312.644 209.028 310.417 212.776C305.453 221.154 299.843 230.125 295.542 237.01C294.488 236.536 293.315 236.196 292.023 236.027C291.819 235.993 291.632 235.993 291.428 235.976C294.624 230.261 298.687 222.68 300.897 217.321C304.484 208.571 291.105 208.57 289.031 208.655C286.906 208.757 283.251 209.385 279.851 210.165C273.561 211.606 267.832 214.269 262.545 216.931C263.769 216.321 265.962 216.202 266.948 217.27C272.694 223.562 278.406 231.719 283.115 237.163C281.602 237.74 280.225 238.52 279.018 239.419C274.836 235.111 269.124 229.481 264.534 225.869C257.071 220.001 250.764 224.817 246.123 229.142C240.649 235.128 237.436 240.317 235.328 247.593C236.025 245.727 236.62 244.557 240.7 244.405C253.229 243.913 265.027 244.167 275.074 244.438C274.666 245.507 274.462 246.575 274.513 247.644C265.996 247.983 253.96 248.61 245.596 249.543C237.878 250.408 235.617 251.748 235.09 255.004C233.713 263.28 240.564 272.505 247.16 276.609C247.16 276.609 244.814 273.743 247.466 271.725C248.469 270.962 276.06 251.968 276.06 251.968C276.06 251.968 277.624 253.63 278.661 254.241C272.32 259.023 263.786 265.62 258.38 270.453C251.444 276.66 258.142 281.748 261.695 282.715C269.447 284.716 280.395 284.801 291.224 282.732C289.507 283.02 286.974 281.884 286.702 278.187C286.107 270.148 285.869 262.737 285.614 255.886C286.464 255.886 287.331 255.801 288.198 255.665C288.946 255.547 289.694 255.377 290.408 255.173C290.986 260.702 291.938 267.893 293.264 272.811C295.474 280.917 304.076 278.882 305.538 278.356C307.612 277.61 309.38 276.643 310.094 276.321C317.965 272.285 323.422 268.537 329.916 261.906C327.553 264.365 324.425 262.635 320.583 261.346C310.536 257.955 305.13 254.97 297.446 251.341C298.262 250.578 298.942 249.73 299.486 248.831C299.605 248.627 299.707 248.424 299.809 248.22C306.881 250.425 316.707 253.325 323.898 254.851C331.684 256.513 336.274 253.647 338.484 248.797C340.354 243.811 341.221 238.265 340.49 233.67L340.473 233.687ZM297.191 247.22C295.508 250.052 291.717 252.172 287.739 252.799C286.328 253.02 284.883 253.054 283.506 252.867C278.219 252.138 275.788 248.424 278.083 244.574C279.766 241.742 283.557 239.622 287.535 238.995C288.946 238.774 290.391 238.74 291.768 238.927C297.055 239.656 299.486 243.37 297.191 247.22Z" fill="#EC2224"/>
</g>
</g>
<defs>
<filter id="filter0_d_0_22" x="45" y="50" width="422" height="422" filterUnits="userSpaceOnUse" color-interpolation-filters="sRGB">
<feFlood flood-opacity="0" result="BackgroundImageFix"/>
<feColorMatrix in="SourceAlpha" type="matrix" values="0 0 0 0 0 0 0 0 0 0 0 0 0 0 0 0 0 0 127 0" result="hardAlpha"/>
<feOffset dy="5"/>
<feGaussianBlur stdDeviation="2.5"/>
<feColorMatrix type="matrix" values="0 0 0 0 0 0 0 0 0 0 0 0 0 0 0 0 0 0 0.3 0"/>
<feBlend mode="normal" in2="BackgroundImageFix" result="effect1_dropShadow_0_22"/>
<feBlend mode="normal" in="SourceGraphic" in2="effect1_dropShadow_0_22" result="shape"/>
</filter>
<filter id="filter1_d_0_22" x="70.0068" y="77.5016" width="372" height="372.498" filterUnits="userSpaceOnUse" color-interpolation-filters="sRGB">
<feFlood flood-opacity="0" result="BackgroundImageFix"/>
<feColorMatrix in="SourceAlpha" type="matrix" values="0 0 0 0 0 0 0 0 0 0 0 0 0 0 0 0 0 0 127 0" result="hardAlpha"/>
<feOffset dy="8"/>
<feGaussianBlur stdDeviation="8"/>
<feComposite in2="hardAlpha" operator="out"/>
<feColorMatrix type="matrix" values="0 0 0 0 0 0 0 0 0 0 0 0 0 0 0 0 0 0 0.2 0"/>
<feBlend mode="normal" in2="BackgroundImageFix" result="effect1_dropShadow_0_22"/>
<feBlend mode="normal" in="SourceGraphic" in2="effect1_dropShadow_0_22" result="shape"/>
</filter>
<filter id="filter2_d_0_22" x="152.805" y="152.799" width="224.528" height="163.957" filterUnits="userSpaceOnUse" color-interpolation-filters="sRGB">
<feFlood flood-opacity="0" result="BackgroundImageFix"/>
<feColorMatrix in="SourceAlpha" type="matrix" values="0 0 0 0 0 0 0 0 0 0 0 0 0 0 0 0 0 0 127 0" result="hardAlpha"/>
<feOffset dy="4"/>
<feGaussianBlur stdDeviation="4"/>
<feComposite in2="hardAlpha" operator="out"/>
<feColorMatrix type="matrix" values="0 0 0 0 0 0 0 0 0 0 0 0 0 0 0 0 0 0 0.25 0"/>
<feBlend mode="normal" in2="BackgroundImageFix" result="effect1_dropShadow_0_22"/>
<feBlend mode="normal" in="SourceGraphic" in2="effect1_dropShadow_0_22" result="shape"/>
</filter>
<filter id="filter3_d_0_22" x="230.912" y="206.452" width="113.837" height="83.7979" filterUnits="userSpaceOnUse" color-interpolation-filters="sRGB">
<feFlood flood-opacity="0" result="BackgroundImageFix"/>
<feColorMatrix in="SourceAlpha" type="matrix" values="0 0 0 0 0 0 0 0 0 0 0 0 0 0 0 0 0 0 127 0" result="hardAlpha"/>
<feOffset dy="2"/>
<feGaussianBlur stdDeviation="2"/>
<feComposite in2="hardAlpha" operator="out"/>
<feColorMatrix type="matrix" values="0 0 0 0 0 0 0 0 0 0 0 0 0 0 0 0 0 0 0.25 0"/>
<feBlend mode="normal" in2="BackgroundImageFix" result="effect1_dropShadow_0_22"/>
<feBlend mode="normal" in="SourceGraphic" in2="effect1_dropShadow_0_22" result="shape"/>
</filter>
<linearGradient id="paint0_linear_0_22" x1="43.25" y1="53.5" x2="298" y2="373.25" gradientUnits="userSpaceOnUse">
<stop stop-opacity="0.01"/>
<stop offset="1" stop-color="white" stop-opacity="0.15"/>
</linearGradient>
</defs>
</svg>
