<svg width="844" height="844" viewBox="0 0 844 844" fill="none" xmlns="http://www.w3.org/2000/svg">
<g filter="url(#filter0_d_0_59)">
<path fill-rule="evenodd" clip-rule="evenodd" d="M834 256.627C834 246.845 834.004 237.062 833.944 227.279C833.895 219.038 833.8 210.799 833.576 202.562C833.092 184.609 832.033 166.502 828.84 148.749C825.602 130.741 820.314 113.98 811.981 97.6166C803.789 81.5337 793.088 66.8168 780.32 54.0578C767.555 41.2989 752.834 30.6049 736.746 22.4179C720.366 14.0829 703.587 8.79697 685.558 5.55998C667.803 2.37199 649.691 1.315 631.738 0.829997C623.495 0.606998 615.253 0.512998 607.008 0.461998C597.22 0.401999 587.432 0.406999 577.644 0.406999L463.997 0H378.997L267.361 0.406999C257.554 0.406999 247.747 0.401999 237.94 0.461998C229.678 0.512998 221.42 0.606998 213.161 0.829997C195.167 1.315 177.014 2.37299 159.217 5.56498C141.164 8.80097 124.36 14.0849 107.958 22.4139C91.8354 30.6019 77.0825 41.2969 64.2906 54.0578C51.5007 66.8158 40.7798 81.5297 32.5728 97.6096C24.2169 113.981 18.9189 130.752 15.673 148.77C12.477 166.516 11.418 184.617 10.931 202.562C10.709 210.8 10.613 219.039 10.563 227.279C10.503 237.063 10 249.216 10 258.999L10.003 369.089L10 454.998L10.508 567.427C10.508 577.223 10.504 587.019 10.563 596.815C10.613 605.067 10.709 613.317 10.932 621.566C11.418 639.542 12.479 657.675 15.678 675.452C18.9229 693.484 24.2199 710.269 32.5688 726.653C40.7768 742.759 51.4997 757.495 64.2906 770.272C77.0815 783.049 91.8304 793.757 107.95 801.956C124.362 810.302 141.174 815.595 159.238 818.836C177.027 822.029 195.174 823.088 213.161 823.573C221.42 823.796 229.679 823.891 237.941 823.941C247.748 824.001 257.554 823.997 267.361 823.997L380.006 824H465.217L577.644 823.996C587.432 823.996 597.22 824.001 607.008 823.941C615.253 823.891 623.495 823.796 631.738 823.573C649.698 823.087 667.816 822.027 685.579 818.832C703.597 815.591 720.368 810.3 736.739 801.959C752.831 793.761 767.554 783.051 780.32 770.272C793.086 757.497 803.786 742.763 811.978 726.66C820.316 710.268 825.604 693.475 828.844 675.431C832.034 657.661 833.092 639.535 833.577 621.566C833.8 613.316 833.895 605.066 833.944 596.815C834.005 587.019 834 577.223 834 567.427C834 567.427 833.994 456.983 833.994 454.998V368.999C833.994 367.533 834 256.627 834 256.627Z" fill="white"/>
</g>
<mask id="mask0_0_59" style="mask-type:luminance" maskUnits="userSpaceOnUse" x="10" y="0" width="824" height="824">
<path fill-rule="evenodd" clip-rule="evenodd" d="M834 256.627C834 246.845 834.004 237.062 833.944 227.279C833.895 219.038 833.8 210.799 833.576 202.562C833.092 184.609 832.033 166.502 828.84 148.749C825.602 130.741 820.314 113.98 811.981 97.6166C803.789 81.5337 793.088 66.8168 780.32 54.0578C767.555 41.2989 752.834 30.6049 736.746 22.4179C720.366 14.0829 703.587 8.79697 685.558 5.55998C667.803 2.37199 649.691 1.315 631.738 0.829997C623.495 0.606998 615.253 0.512998 607.008 0.461998C597.22 0.401999 587.432 0.406999 577.644 0.406999L463.997 0H378.997L267.361 0.406999C257.554 0.406999 247.747 0.401999 237.94 0.461998C229.678 0.512998 221.42 0.606998 213.161 0.829997C195.167 1.315 177.014 2.37299 159.217 5.56498C141.164 8.80097 124.36 14.0849 107.958 22.4139C91.8354 30.6019 77.0825 41.2969 64.2906 54.0578C51.5007 66.8158 40.7798 81.5297 32.5728 97.6096C24.2169 113.981 18.9189 130.752 15.673 148.77C12.477 166.516 11.418 184.617 10.931 202.562C10.709 210.8 10.613 219.039 10.563 227.279C10.503 237.063 10 249.216 10 258.999L10.003 369.089L10 454.998L10.508 567.427C10.508 577.223 10.504 587.019 10.563 596.815C10.613 605.067 10.709 613.317 10.932 621.566C11.418 639.542 12.479 657.675 15.678 675.452C18.9229 693.484 24.2199 710.269 32.5688 726.653C40.7768 742.759 51.4997 757.495 64.2906 770.272C77.0815 783.049 91.8304 793.757 107.95 801.956C124.362 810.302 141.174 815.595 159.238 818.836C177.027 822.029 195.174 823.088 213.161 823.573C221.42 823.796 229.679 823.891 237.941 823.941C247.748 824.001 257.554 823.997 267.361 823.997L380.006 824H465.217L577.644 823.996C587.432 823.996 597.22 824.001 607.008 823.941C615.253 823.891 623.495 823.796 631.738 823.573C649.698 823.087 667.816 822.027 685.579 818.832C703.597 815.591 720.368 810.3 736.739 801.959C752.831 793.761 767.554 783.051 780.32 770.272C793.086 757.497 803.786 742.763 811.978 726.66C820.316 710.268 825.604 693.475 828.844 675.431C832.034 657.661 833.092 639.535 833.577 621.566C833.8 613.316 833.895 605.066 833.944 596.815C834.005 587.019 834 577.223 834 567.427C834 567.427 833.994 456.983 833.994 454.998V368.999C833.994 367.533 834 256.627 834 256.627Z" fill="white"/>
</mask>
<g mask="url(#mask0_0_59)">
<rect width="824" height="824" transform="translate(10)" fill="white"/>
<rect width="824" height="824" transform="translate(10)" fill="url(#paint0_linear_0_59)"/>
<g filter="url(#filter1_d_0_59)">
<path d="M756.254 251.714C722.186 113.499 545.896 38.5746 358.59 84.5331C171.216 130.492 53.8141 280.035 87.8821 418.25C105.97 491.681 207.596 576.679 274.644 560.263L338.836 555.074V551.478C316.634 548.833 295.452 544.05 275.698 537.301C206.644 513.796 154.964 466.718 139.494 403.868C111.24 289.193 214.09 165.189 369.096 127.168C524.068 89.1459 672.852 151.419 701.14 266.095C727.354 372.427 632.834 485.848 496.562 532.247C496.018 532.417 495.576 533.57 495.27 535.334L426.76 701.293L416.492 562.434H368.246L389.088 752H445.63L527.944 558.194C696.38 507.25 786.412 373.987 756.254 251.68V251.714Z" fill="black"/>
</g>
<g filter="url(#filter2_d_0_59)">
<path fill-rule="evenodd" clip-rule="evenodd" d="M646.298 314.461C629.094 237.027 522.844 195.342 408.978 221.323C295.112 247.338 216.776 331.183 233.98 408.651C251.184 486.085 357.434 527.77 471.3 501.789C585.166 475.774 663.502 391.929 646.298 314.461ZM485.172 480.082C394.732 500.738 310.31 467.498 296.608 405.87C282.906 344.207 345.126 277.491 435.566 256.835C526.006 236.179 610.428 269.419 624.13 331.047C637.832 392.71 575.612 459.426 485.172 480.082Z" fill="#B42025"/>
</g>
<g filter="url(#filter3_d_0_59)">
<path fill-rule="evenodd" clip-rule="evenodd" d="M590.946 367.373C589.994 361.505 587.784 356.044 587.784 356.044C588.872 359.572 587.24 362.116 582.786 363.778C577.482 365.745 534.54 379.346 511.352 386.74C511.148 385.349 510.774 384.027 510.196 382.704C509.924 382.093 509.618 381.483 509.244 380.94C525.768 375.174 548.854 366.864 564.256 360.25C577.958 354.383 579.148 342.07 574.524 337.322C559.802 324.501 546.066 319.719 529.61 316.903C529.61 316.903 535.288 318.057 530.834 325.552C520.906 342.308 509.686 360.25 501.084 374.021C498.976 373.071 496.63 372.393 494.046 372.054C493.638 371.986 493.264 371.986 492.856 371.952C499.248 360.522 507.374 345.36 511.794 334.642C518.968 317.141 492.21 317.141 488.062 317.31C483.812 317.514 476.502 318.769 469.702 320.329C457.122 323.212 445.664 328.537 435.09 333.862C437.538 332.641 441.924 332.404 443.896 334.541C455.388 347.124 466.812 363.439 476.23 374.326C473.204 375.479 470.45 377.04 468.036 378.837C459.672 370.222 448.248 358.961 439.068 351.737C424.142 340.001 411.528 349.634 402.246 358.283C391.298 370.256 384.872 380.635 380.656 395.186C382.05 391.455 383.24 389.114 391.4 388.809C416.458 387.825 440.054 388.334 460.148 388.877C459.332 391.014 458.924 393.15 459.026 395.287C441.992 395.966 417.92 397.221 401.192 399.086C385.756 400.816 381.234 403.495 380.18 410.008C377.426 426.559 391.128 445.011 404.32 453.219C404.32 453.219 399.628 447.487 404.932 443.45C406.938 441.924 462.12 403.936 462.12 403.936C462.12 403.936 465.248 407.26 467.322 408.481C454.64 418.046 437.572 431.24 426.76 440.907C412.888 453.321 426.284 463.496 433.39 465.429C448.894 469.431 470.79 469.601 492.448 465.463C489.014 466.04 483.948 463.767 483.404 456.373C482.214 440.296 481.738 425.474 481.228 411.771C482.928 411.771 484.662 411.602 486.396 411.33C487.892 411.093 489.388 410.754 490.816 410.347C491.972 421.404 493.876 435.785 496.528 445.621C500.948 461.834 518.152 457.764 521.076 456.712C525.224 455.22 528.76 453.287 530.188 452.642C545.93 444.57 556.844 437.074 569.832 423.812C565.106 428.73 558.85 425.271 551.166 422.693C531.072 415.909 520.26 409.94 504.892 402.681C506.524 401.155 507.884 399.459 508.972 397.662C509.21 397.255 509.414 396.847 509.618 396.44C523.762 400.85 543.414 406.65 557.796 409.702C573.368 413.026 582.548 407.294 586.968 397.594C590.708 387.622 592.442 376.531 590.98 367.339L590.946 367.373ZM504.382 394.439C501.016 400.104 493.434 404.343 485.478 405.598C482.656 406.039 479.766 406.107 477.012 405.734C466.438 404.275 461.576 396.848 466.166 389.148C469.532 383.484 477.114 379.244 485.07 377.989C487.892 377.548 490.782 377.48 493.536 377.854C504.11 379.312 508.972 386.74 504.382 394.439Z" fill="#EC2224"/>
</g>
</g>
<defs>
<filter id="filter0_d_0_59" x="0" y="0" width="844" height="844" filterUnits="userSpaceOnUse" color-interpolation-filters="sRGB">
<feFlood flood-opacity="0" result="BackgroundImageFix"/>
<feColorMatrix in="SourceAlpha" type="matrix" values="0 0 0 0 0 0 0 0 0 0 0 0 0 0 0 0 0 0 127 0" result="hardAlpha"/>
<feOffset dy="10"/>
<feGaussianBlur stdDeviation="5"/>
<feColorMatrix type="matrix" values="0 0 0 0 0 0 0 0 0 0 0 0 0 0 0 0 0 0 0.3 0"/>
<feBlend mode="normal" in2="BackgroundImageFix" result="effect1_dropShadow_0_59"/>
<feBlend mode="normal" in="SourceGraphic" in2="effect1_dropShadow_0_59" result="shape"/>
</filter>
<filter id="filter1_d_0_59" x="50.0137" y="55.0031" width="744.001" height="744.997" filterUnits="userSpaceOnUse" color-interpolation-filters="sRGB">
<feFlood flood-opacity="0" result="BackgroundImageFix"/>
<feColorMatrix in="SourceAlpha" type="matrix" values="0 0 0 0 0 0 0 0 0 0 0 0 0 0 0 0 0 0 127 0" result="hardAlpha"/>
<feOffset dy="16"/>
<feGaussianBlur stdDeviation="16"/>
<feComposite in2="hardAlpha" operator="out"/>
<feColorMatrix type="matrix" values="0 0 0 0 0 0 0 0 0 0 0 0 0 0 0 0 0 0 0.2 0"/>
<feBlend mode="normal" in2="BackgroundImageFix" result="effect1_dropShadow_0_59"/>
<feBlend mode="normal" in="SourceGraphic" in2="effect1_dropShadow_0_59" result="shape"/>
</filter>
<filter id="filter2_d_0_59" x="215.611" y="205.599" width="449.056" height="327.915" filterUnits="userSpaceOnUse" color-interpolation-filters="sRGB">
<feFlood flood-opacity="0" result="BackgroundImageFix"/>
<feColorMatrix in="SourceAlpha" type="matrix" values="0 0 0 0 0 0 0 0 0 0 0 0 0 0 0 0 0 0 127 0" result="hardAlpha"/>
<feOffset dy="8"/>
<feGaussianBlur stdDeviation="8"/>
<feComposite in2="hardAlpha" operator="out"/>
<feColorMatrix type="matrix" values="0 0 0 0 0 0 0 0 0 0 0 0 0 0 0 0 0 0 0.25 0"/>
<feBlend mode="normal" in2="BackgroundImageFix" result="effect1_dropShadow_0_59"/>
<feBlend mode="normal" in="SourceGraphic" in2="effect1_dropShadow_0_59" result="shape"/>
</filter>
<filter id="filter3_d_0_59" x="371.824" y="312.903" width="227.673" height="167.596" filterUnits="userSpaceOnUse" color-interpolation-filters="sRGB">
<feFlood flood-opacity="0" result="BackgroundImageFix"/>
<feColorMatrix in="SourceAlpha" type="matrix" values="0 0 0 0 0 0 0 0 0 0 0 0 0 0 0 0 0 0 127 0" result="hardAlpha"/>
<feOffset dy="4"/>
<feGaussianBlur stdDeviation="4"/>
<feComposite in2="hardAlpha" operator="out"/>
<feColorMatrix type="matrix" values="0 0 0 0 0 0 0 0 0 0 0 0 0 0 0 0 0 0 0.25 0"/>
<feBlend mode="normal" in2="BackgroundImageFix" result="effect1_dropShadow_0_59"/>
<feBlend mode="normal" in="SourceGraphic" in2="effect1_dropShadow_0_59" result="shape"/>
</filter>
<linearGradient id="paint0_linear_0_59" x1="86.5" y1="107" x2="596" y2="746.5" gradientUnits="userSpaceOnUse">
<stop stop-opacity="0.01"/>
<stop offset="1" stop-color="white" stop-opacity="0.15"/>
</linearGradient>
</defs>
</svg>
