<svg width="24" height="24" viewBox="0 0 24 24" fill="none" xmlns="http://www.w3.org/2000/svg">
<path fill-rule="evenodd" clip-rule="evenodd" d="M12 0C18.6231 0 24 5.37693 24 12C24 18.6231 18.6231 24 12 24L11.9293 23.9998H0L3.51588 20.4832C1.34404 18.3111 0 15.3113 0 12C0 5.37693 5.37693 0 12 0ZM15.5181 10.9376C17.3402 11.6179 19.0277 12.7433 20.1632 14.2497L20.167 14.251C19.7092 15.9159 18.7548 17.3758 17.4747 18.461C17.2811 16.9043 16.4335 15.1011 15.044 14.1592C15.6501 15.9674 15.8438 17.9454 15.4213 19.7474C14.3763 20.2089 13.2207 20.4654 12.0047 20.4654C11.4917 20.4654 10.99 20.4189 10.5033 20.3321C11.5558 19.1991 12.3807 17.45 12.2412 15.8165C11.2364 17.3947 9.85574 18.7666 8.23109 19.5789C6.72087 18.8257 5.46844 17.6361 4.63851 16.1749C6.1701 16.2655 8.01606 15.804 9.18425 14.6823C7.33452 14.8936 5.41059 14.6873 3.76206 13.9442C3.61493 13.3205 3.53697 12.6691 3.53697 12.0001C3.53697 10.9313 3.73565 9.90897 4.0978 8.96713C4.98809 10.2284 6.52345 11.394 8.14684 11.5965C6.8001 10.2749 5.73754 8.62133 5.28736 6.84579C6.32477 5.49652 7.75954 4.46792 9.41688 3.93727C8.96294 5.43617 9.00821 7.42045 9.89095 8.84264C10.0758 6.92249 10.7158 5.01743 11.8589 3.53613C11.9067 3.53488 11.9544 3.53488 12.0022 3.53488C13.7539 3.53488 15.381 4.06679 16.7316 4.97845C15.1861 5.57952 13.5414 6.97782 13.0547 8.69552C14.7963 7.61033 16.8485 6.93632 18.8416 7.01303C19.8262 8.36229 20.4235 10.0133 20.4637 11.8027C19.1308 10.9439 17.1553 10.4421 15.5181 10.9376Z" fill="black"/>
<path fill-rule="evenodd" clip-rule="evenodd" d="M11.9999 9.95923C13.1265 9.95923 14.0407 10.8734 14.0407 12.0001C14.0407 13.1268 13.1265 14.041 11.9999 14.041C10.8732 14.041 9.95898 13.1268 9.95898 12.0001C9.95898 10.8734 10.8732 9.95923 11.9999 9.95923Z" fill="black"/>
</svg>
