<?xml version="1.0" encoding="UTF-8"?>
<svg id="Layer_2" data-name="Layer 2" xmlns="http://www.w3.org/2000/svg" viewBox="0 0 40 40">
  <defs>
    <style>
      .cls-1 {
        fill: #fff;
      }

      .cls-2 {
        fill: #d0a962;
      }
    </style>
  </defs>
  <g id="Layer_1-2" data-name="Layer 1">
    <g>
      <ellipse class="cls-1" cx="20" cy="20" rx="19.95" ry="20"/>
      <g>
        <path class="cls-2" d="M21.08,30.67c-1.38-1.23-3.22-1.47-3.22-1.47,0,0,4.79-2.29,2.3-4.71-1.59-1.55-6.01-1.02-7.31-3.29-1.44-2.51.83-4.63,4.45-7.15-8.05,1.73-13.75-.68-13.94-5.12C1.5,11.69.35,14.9.06,18.47c-.64,8.07,3.59,15.41,10.21,19.11.24-1.23.86-2.15,1.75-2.99,1.46-1.38,5.81-3.14,9.06-3.92Z"/>
        <g>
          <path class="cls-2" d="M8.46,8.84c4.5,3.39,17.64,1.22,22.21-4.37l.2.2c-.44,1.41-2.52,3.95-6.32,7.35-3.24,2.91-6.89,5.82-3.87,7.46,3.28,1.78,5.32,2.6,3.85,5.9-.61,1.37-2.85,2.78-3.99,3.29,0,0,1.82.19,3.07,1.48,5.84-1.2,10.55-.79,13.87-.28,1.33-2.42,2.22-5.29,2.46-8.22.75-9.46-5.17-17.9-13.81-20.68.54,1.09-.03,2.72-3.22,4.11-2.38,1.04-5.46,1.3-7.09,1.21l-.35-.42c3.82-.66,7.73-3.17,6.77-4.88-.3-.53-1.1-.94-1.86-.96-3.41-.19-7.62.96-10.86,2.96.04-.02-4.96,2.89-1.05,5.85Z"/>
          <path class="cls-2" d="M34.69,33.65c-3.51-1.35-7.05-1.69-9.93-1.55.28.99.32,2.04.08,3.07h.01c-.49,2.58-2.59,4.68-2.74,4.82,4.93-.52,9.35-2.83,12.57-6.35Z"/>
          <path class="cls-2" d="M18.78,36.61c1.55-.6,3.63-2.16,3.33-4.24-3.34.48-5.57,1.6-6.35,2.19-.84.64-1.03,1.57-.68,2.04.35.46,2.38.52,3.7.01Z"/>
          <path class="cls-2" d="M18.66.02c-.08.01-.13.02-.15.03,0,0,.05-.01.15-.03Z"/>
        </g>
      </g>
    </g>
  </g>
</svg>