<?xml version="1.0" encoding="UTF-8"?>
<svg id="Layer_2" data-name="Layer 2" xmlns="http://www.w3.org/2000/svg" viewBox="0 0 48 48">
  <defs>
    <style>
      .cls-1 {
        fill: #fff;
      }

      .cls-2 {
        fill: #d0a962;
      }
    </style>
  </defs>
  <g id="Layer_1-2" data-name="Layer 1">
    <g>
      <ellipse class="cls-1" cx="24" cy="24" rx="23.94" ry="24"/>
      <g>
        <path class="cls-2" d="M25.29,36.8c-1.66-1.47-3.86-1.76-3.86-1.76,0,0,5.75-2.75,2.76-5.65-1.91-1.86-7.22-1.22-8.78-3.95-1.72-3.02,1-5.55,5.34-8.58-9.65,2.08-16.51-.82-16.73-6.15C1.8,14.03.42,17.88.08,22.16c-.77,9.69,4.3,18.49,12.25,22.93.29-1.48,1.04-2.58,2.09-3.59,1.75-1.66,6.97-3.77,10.87-4.71Z"/>
        <g>
          <path class="cls-2" d="M10.15,10.6c5.39,4.07,21.17,1.46,26.65-5.24l.24.24c-.53,1.7-3.02,4.74-7.59,8.82-3.89,3.49-8.26,6.99-4.65,8.95,3.94,2.14,6.39,3.12,4.62,7.07-.73,1.64-3.42,3.34-4.79,3.94,0,0,2.18.23,3.68,1.78,7.01-1.45,12.66-.95,16.64-.33,1.59-2.9,2.67-6.35,2.95-9.86.9-11.35-6.21-21.48-16.58-24.81.65,1.31-.03,3.26-3.87,4.93-2.86,1.25-6.56,1.56-8.51,1.45l-.42-.5c4.58-.8,9.27-3.81,8.12-5.86-.35-.63-1.32-1.13-2.23-1.15-4.09-.23-9.15,1.15-13.03,3.55.05-.02-5.96,3.47-1.26,7.02Z"/>
          <path class="cls-2" d="M41.63,40.38c-4.21-1.62-8.46-2.03-11.92-1.86.33,1.19.38,2.45.1,3.69l.02-.02c-.59,3.12-3.11,5.63-3.29,5.8,5.92-.62,11.21-3.4,15.09-7.62Z"/>
          <path class="cls-2" d="M22.53,43.93c1.86-.72,4.35-2.59,3.99-5.09-4.01.58-6.68,1.92-7.62,2.63-1.01.77-1.24,1.89-.82,2.44.42.56,2.86.63,4.44.01Z"/>
          <path class="cls-2" d="M22.39.03c-.09.01-.15.03-.18.03,0,0,.07-.01.18-.03Z"/>
        </g>
      </g>
    </g>
  </g>
</svg>